<?xml version="1.0" encoding="UTF-8"?>
<svg id="katman_2" xmlns="http://www.w3.org/2000/svg" xmlns:xlink="http://www.w3.org/1999/xlink" viewBox="0 0 886.12 1001.71">
  <defs>
    <style>
      .cls-1 {
        fill: url(#Adsız_degrade_7);
      }
    </style>
    <linearGradient id="Adsız_degrade_7" data-name="Adsız degrade 7" x1="0" y1="500.85" x2="886.12" y2="500.85" gradientUnits="userSpaceOnUse">
      <stop offset="0" stop-color="#084e58"/>
      <stop offset="1" stop-color="#0dc6c4"/>
    </linearGradient>
  </defs>
  <g id="katman_1">
    <path class="cls-1" d="M252.41,299.2c4.99-.49,25.26,1.06,45.79,2.88,24.4,2.19,49.18,4.76,49.18,4.76l-52.71,3.17-1.87.12s-19.66,27.28-42.58,26.2c-22.93-1.1-13.1-4.37-21.83,2.19-7.18,5.38-26.86,18.84-33.67,23.51-1.36.93-2.21,1.49-2.34,1.59.48-.55,8.87-9.83,17.04-18.83,7.42-8.19,14.68-16.17,15.69-17.19.78-.77,16.38-27.28,27.3-28.38ZM219.42,938.82h0c-19.28-50.4-24.94-123.24-13.5-161.29,12.13-40.48,53.57-98.43,73.67-102.99-22.33,28.02-39.86,57.79-42.89,94.19,19.55-31.48,44.75-56.56,78.82-71.95-.61,2.1-1.77,3.63-3.07,5.04-43.23,46.36-71.53,100.23-80.7,163.33-2.03,14.01-1.75,28.38-2.04,42.6l3.65,39.05c63.42,34.75,136.15,54.62,213.5,54.9.16.01.3.01.46,0,42.45-.38,83.02-6.47,121.06-16.17,97.47-26.95,181.62-85.97,240.38-164.99,41.41-55.69,56.55-126.66,42.84-194.69l-2.03-10.05c13.17,25.88,6.37,12.26,26.6,57.02l-.12-2.94c-1.69-42.19-13.76-83.39-35.61-119.52-6.85-11.33-14.91-23.42-24.74-38.09-.61-.93-1.21-1.88-1.79-2.85-1.01-1.72-1.49-3.66-1.86-5.62-.04-.23-.13-.45-.25-.66.07-.1.14-.19.2-.28.45.13.93.13,1.35,0,2.26-.71,4.69-.61,6.98-.1,25.01,5.43,65.78,41.63,65.78,41.63-42.25-74.51-109.16-161.66-176.87-205.73.42-.97.09-2.1-.8-2.68v-.03c.87,0,1.65-.51,2-1.3h90.16l10.75.58s-103.47-72.05-173.47-89.52c0,0,10.8-31.65,91.59-31.65-1.77-.91-9.83-4.37-10.23-4.53-10.31-5.33-20.64-9.94-31.1-14.29-39.8-16.5-81.05-28.31-123.04-37.4-.25-.16-.51-.28-.78-.33-42.19-29.73-92.54-51.45-132.85-83.47-.01-.01-.03-.01-.03-.03-12.85-8.7-25.31-18.01-36.73-28.51-13.06-11.81-25.29-24.56-38.11-36.56-.9-.88-1.82-1.72-2.74-2.58,0-.01-.01-.03-.03-.03-16.15-13.32-24.59-3.46-26.1,9.62-.45,3.66-.33,7.6.32,11.33.01.03.03.1.03.13,1.52,18.73,3.33,37.47,4.82,56.22l.29,4.88,1.09,22.93c-25.5-10.26-52.02-41.31-72.39-59.72l-.16-.16c-2.36-2.65-4.89-5.32-7.48-7.91-18.67-18.6-41.25-32.29-34.26,10.77.28,2.42.55,4.81.81,7.12,21.94,185.75,58.02,72.17-26.79,196.09-.03.04-.06.09-.1.14-8.61,14.47-13.65,30.32-14.1,47.24-.61,8.88,1.41,19.5-4.75,26.75l-.27.28c-14.91,13.49-33.04,23.64-50.04,34.37-37.65,21.75-72.57,48.36-111.84,67.32-.07.03-.13.06-.19.07-9.21,3.43-12.74,9.02-12.74,15.21s3.66,13.2,8.76,19.08c8.15,10.52,16.46,20.96,28.74,26.39h.01c10.86,3.37,18.7,11.26,27.49,17.98l.51.3c24.03,10.83,24.93,31.56,53,35.6,26.28,4.62,52.35-3.17,78.53-4.37,9.06-1.13,18.15.88,25.31,5.6,4.05,5.44,7.51,10.84,10.48,16.18l6.57,14.36,6.46,19.79c.26,1.24.51,2.47.74,3.71-22.82,37.07-53.87,66.13-91.05,89.19-2.49,1.53-4.81,3.31-9.03,6.27,24.21,4.52,45.94,2,69.82-.71-28.93,39.03-53.65,77.57-67.82,121.75l1.66,1.41c7.31-3.73,14.6-7.5,23.71-12.16-.22,4.28-.26,6.3-.41,8.31,0,.09-.01.19-.02.28-1.19,18.58,1.26,37.21,7.22,54.84l9.97,29.47c5.12,15.12,15.27,28.03,28.76,36.56Z"/>
  </g>
</svg>